# xmcd CD database file
#
# Track frame offsets:
#	150
#	18188
#	35906
#	54232
#	70662
#	87953
#	102294
#	121197
#	136674
#	151904
#	166790
#	181947
#
# Disc length: 2666 seconds
#
# Revision: 0
# Processed by: cddbd v1.5.1PL2 Copyright (c) Steve Scherf et al.
# Submitted via: CDex 1.51
#
DISCID=890a680c
DTITLE=EDDIE HIGGINS - SWEET LORRAINE
DYEAR=1900
DGENRE=Jazz
TTITLE0=Teach Me Tonight 
TTITLE1=Sweet Lorraine 
TTITLE2=Ruby 
TTITLE3=Three Little Words
TTITLE4=Someone to Watch Over Me 
TTITLE5=Song is You 
TTITLE6=Sometimes I'm Happy 
TTITLE7=Route 66
TTITLE8=Rosetta
TTITLE9=Somebo
TTITLE10=Take The A Train
TTITLE11=These Foolish Things 
EXTD=
EXTT0=
EXTT1=
EXTT2=
EXTT3=
EXTT4=
EXTT5=
EXTT6=
EXTT7=
EXTT8=
EXTT9=
EXTT10=
EXTT11=
PLAYORDER=
